<svg width="24" height="24" viewBox="0 0 24 24" fill="none" xmlns="http://www.w3.org/2000/svg">
  <path d="M5 5.75C5 4.7835 5.7835 4 6.75 4H11.5C12.4665 4 13.25 4.7835 13.25 5.75V7.25C13.25 8.2165 12.4665 9 11.5 9H6.75C5.7835 9 5 8.2165 5 7.25V5.75Z" stroke="currentColor" stroke-width="1.8"/>
  <path d="M12.75 5H14.25C16.8734 5 19 7.12665 19 9.75V14.25C19 16.8734 16.8734 19 14.25 19H12" stroke="currentColor" stroke-width="1.8" stroke-linecap="round"/>
  <path d="M17 7L19.5 9.5L17 12" stroke="currentColor" stroke-width="1.8" stroke-linecap="round" stroke-linejoin="round"/>
  <path d="M5 14.5H10" stroke="currentColor" stroke-width="1.8" stroke-linecap="round"/>
  <path d="M5 18H12" stroke="currentColor" stroke-width="1.8" stroke-linecap="round"/>
  <circle cx="6.75" cy="6.5" r="1.75" fill="currentColor"/>
</svg>
